<svg width="327" height="76" viewBox="0 0 327 76" fill="none" xmlns="http://www.w3.org/2000/svg">
<g clip-path="url(#clip0_59_14)">
<rect width="327" height="76" fill="#FEFDFD"/>
<path d="M327 5C327 2.23858 324.761 0 322 0H4.99999C2.23857 0 0 2.23858 0 5V71C0 73.7614 2.23858 76 5 76H322C324.761 76 327 73.7614 327 71V5Z" fill="#D9D9D9"/>
<path d="M86.3913 61.2428H76.9935C73.1684 61.2428 70.0193 60.8691 67.5463 60.1215C65.0731 59.374 63.1276 58.3872 61.7097 57.1613C60.2917 55.9353 59.3191 54.515 58.7915 52.9003C58.2639 51.3155 58 49.6859 58 48.0114V31.416C58 29.7714 58.2639 28.2613 58.7915 26.8859C59.3191 25.4805 60.2423 24.2695 61.5613 23.2528L67.9913 18.3639C69.3763 17.3173 71.3053 16.495 73.7784 15.897C76.2516 15.299 79.4501 15 83.3741 15C87.2321 15 90.3977 15.284 92.8708 15.8522C95.344 16.4203 97.2729 17.2127 98.658 18.2293C100.043 19.246 100.999 20.472 101.527 21.9072C102.054 23.3126 102.318 24.8525 102.318 26.527V38.1887C102.318 39.8034 102.12 41.2536 101.725 42.5394C101.329 43.8251 100.571 44.8866 99.4493 45.7239L93.0687 50.568C92.9368 50.6577 92.7884 50.7623 92.6236 50.8819V50.8819C92.485 50.9573 92.5411 51.151 92.6988 51.151H92.772C93.5633 51.151 94.1239 51.3005 94.4536 51.5996C94.7835 51.8986 94.9483 52.4069 94.9483 53.1245V54.3804C94.9483 54.7691 94.8988 55.0831 94.7999 55.3223C94.7009 55.5914 94.5525 55.8007 94.3548 55.9502L94.3052 55.9951L87.9247 60.8392C87.7597 60.9588 87.5455 61.0485 87.2816 61.1083C87.0179 61.198 86.7211 61.2428 86.3913 61.2428ZM70.3161 26.3476V26.3476C70.3161 27.8337 72.0202 28.6746 73.1997 27.7706L74.4709 26.7962C75.0315 26.3775 75.7404 26.0187 76.5979 25.7197C77.1253 25.5357 77.7214 25.3914 78.3861 25.2866C78.5035 25.2681 78.4972 25.0918 78.3784 25.0918V25.0918C77.9497 25.0918 77.4881 25.0918 76.9935 25.0918C75.6745 25.0918 74.4544 25.1366 73.3333 25.2263C72.3836 25.277 71.5286 25.3598 70.7682 25.4749C70.5219 25.5121 70.3161 25.6949 70.3161 25.944V25.944C70.3161 26.0935 70.3161 26.228 70.3161 26.3476ZM92.772 55.9054C93.3984 55.9054 93.8271 55.7858 94.058 55.5466C94.3217 55.3373 94.4536 54.9485 94.4536 54.3804V53.1245C94.4536 52.5564 94.3217 52.1527 94.058 51.9135C93.8271 51.7042 93.3984 51.5996 92.772 51.5996H83.3741C80.6701 51.5996 78.4279 51.4501 76.6473 51.151C74.8996 50.8221 73.5147 50.3736 72.4924 49.8055C71.5032 49.2373 70.8107 48.5496 70.4151 47.7422C70.0193 46.9349 69.8215 46.0528 69.8215 45.096V26.3476C69.8215 25.3908 70.0193 24.5087 70.4151 23.7013C70.8107 22.8641 71.5032 22.1614 72.4924 21.5933C73.5147 21.0251 74.8996 20.5766 76.6473 20.2477C78.4279 19.9188 80.6701 19.7543 83.3741 19.7543C86.078 19.7543 88.3039 19.9188 90.0515 20.2477C91.8321 20.5766 93.2171 21.0251 94.2064 21.5933C95.1956 22.1614 95.888 22.8641 96.2837 23.7013C96.6795 24.5087 96.8773 25.3908 96.8773 26.3476V38.2784C96.8773 39.4744 96.6795 40.4612 96.2837 41.2386V41.2386C95.5919 42.6647 93.8107 41.0751 93.8107 39.49V26.7064C93.8107 26.4882 93.7743 26.303 93.7016 26.1508C93.5916 25.9207 93.3845 25.7392 93.148 25.6435C92.9782 25.5747 92.7704 25.5403 92.5247 25.5403H81.3956C78.0652 25.5403 75.7735 26.1533 74.5204 27.3792C73.3003 28.5753 72.6903 30.1601 72.6903 32.1336V40.7901C72.6903 42.7337 73.3003 44.3185 74.5204 45.5445C75.7735 46.7405 78.0652 47.3386 81.3956 47.3386H90.744C93.0523 47.3386 94.9317 47.1143 96.3827 46.6658C97.8336 46.2173 98.9547 45.6043 99.7461 44.8268C100.571 44.0195 101.115 43.0626 101.378 41.9563C101.675 40.82 101.823 39.5642 101.823 38.1887V26.527C101.823 24.8824 101.56 23.3874 101.032 22.0418C100.505 20.6663 99.5483 19.5002 98.1633 18.5433C96.8113 17.5565 94.9317 16.7941 92.5247 16.2558C90.1175 15.7176 87.0673 15.4485 83.3741 15.4485C79.6809 15.4485 76.6308 15.7176 74.2236 16.2558C71.8164 16.7941 69.9204 17.5565 68.5355 18.5433C67.1835 19.5002 66.2272 20.6663 65.6667 22.0418C65.1391 23.3874 64.8753 24.8824 64.8753 26.527V44.9165C64.8753 46.5312 65.1391 48.0263 65.6667 49.4018C66.2272 50.7474 67.1835 51.8986 68.5355 52.8554C69.9204 53.8123 71.8164 54.5598 74.2236 55.0981C76.6308 55.6363 79.6809 55.9054 83.3741 55.9054H92.772ZM83.3741 54.0664C79.7799 54.0664 76.8945 53.8123 74.7183 53.304C72.5749 52.8255 70.9427 52.1677 69.8215 51.3304C68.7004 50.4932 67.9584 49.5363 67.5957 48.4599C67.266 47.3834 67.1011 46.2621 67.1011 45.096V26.3476C67.1011 25.1815 67.266 24.0602 67.5957 22.9837C67.9584 21.8773 68.7004 20.9205 69.8215 20.1131C70.9427 19.2759 72.5749 18.6181 74.7183 18.1396C76.8945 17.6313 79.7799 17.3771 83.3741 17.3771C86.9684 17.3771 89.8372 17.6313 91.9805 18.1396C94.1569 18.6181 95.7892 19.2759 96.8773 20.1131C97.9984 20.9205 98.7239 21.8773 99.0536 22.9837C99.4164 24.0602 99.5977 25.1815 99.5977 26.3476V38.2784C99.5977 40.521 99.1525 42.1506 98.2623 43.1673C97.3719 44.1541 95.888 44.6474 93.8107 44.6474H80.8516C79.2357 44.6474 78.0981 44.3036 77.4387 43.6158C76.7792 42.8982 76.4495 41.732 76.4495 40.1173V32.8961C76.4495 32.2981 76.4824 31.715 76.5484 31.1468C76.6143 30.5787 76.8451 30.0853 77.2408 29.6667C77.6695 29.2182 78.3125 28.8594 79.1699 28.5902C80.0601 28.3211 81.3132 28.1866 82.9289 28.1866H85.0515C87.8129 28.1866 90.0515 30.4252 90.0515 33.1866V40.4397C90.0515 42.5159 91.7345 44.1989 93.8107 44.1989V44.1989C95.7232 44.1989 97.0752 43.7354 97.8665 42.8085C98.6909 41.8516 99.1031 40.3416 99.1031 38.2784V26.3476C99.1031 25.2114 98.9217 24.1349 98.5591 23.1182C98.2293 22.0717 97.5039 21.1597 96.3827 20.3823C95.2945 19.6048 93.7117 18.9918 91.6343 18.5433C89.5569 18.0649 86.8035 17.8257 83.3741 17.8257C79.9448 17.8257 77.1913 18.0649 75.114 18.5433C73.0365 18.9918 71.4372 19.6048 70.3161 20.3823C69.228 21.1597 68.5025 22.0717 68.1397 23.1182C67.7771 24.1349 67.5957 25.2114 67.5957 26.3476V45.096C67.5957 46.2023 67.7605 47.2788 68.0903 48.3253C68.4531 49.342 69.1785 50.254 70.2667 51.0613C71.3877 51.8388 72.9871 52.4518 75.0645 52.9003C77.1749 53.3787 79.9448 53.6179 83.3741 53.6179H91.7563C91.8801 53.6179 91.9805 53.7183 91.9805 53.8421V53.8421C91.9805 53.966 91.8801 54.0664 91.7563 54.0664H83.3741ZM80.8516 44.1989H84.5569C87.3184 44.1989 89.5569 41.9603 89.5569 39.1989V33.6351C89.5569 30.8737 87.3183 28.6351 84.5569 28.6351H82.9289C81.4781 28.6351 80.3404 28.7547 79.5161 28.9939C78.7247 29.2331 78.1312 29.5471 77.7355 29.9358C77.3727 30.3245 77.1419 30.788 77.0429 31.3263C76.9771 31.8346 76.944 32.3579 76.944 32.8961V40.1173C76.944 41.5526 77.2243 42.5992 77.7849 43.257C78.3784 43.8849 79.4007 44.1989 80.8516 44.1989ZM82.4344 41.1938C81.7748 41.1938 81.3297 41.0592 81.0988 40.7901C80.868 40.4911 80.7527 40.1173 80.7527 39.6688V32.8961C80.7527 32.5074 80.8845 32.1485 81.1483 31.8196C81.4121 31.4608 82.0057 31.2814 82.9289 31.2814V31.2814C84.486 31.2814 85.7483 32.5437 85.7483 34.1007V37.8799C85.7483 39.7101 84.2646 41.1938 82.4344 41.1938V41.1938ZM134.458 55.0083C133.304 55.9054 131.689 56.5931 129.611 57.0716C127.534 57.5799 124.863 57.8341 121.598 57.8341C118.367 57.8341 115.712 57.5201 113.635 56.8922C111.59 56.2941 109.975 55.4868 108.787 54.4701C107.633 53.4535 106.825 52.2873 106.364 50.9716C105.935 49.656 105.721 48.2954 105.721 46.8901V32.9409C105.721 31.5655 105.935 30.2946 106.364 29.1285C106.793 27.9324 107.567 26.9158 108.689 26.0785L115.119 21.2344C116.273 20.3374 117.872 19.6497 119.917 19.1712C121.994 18.6629 124.681 18.4087 127.979 18.4087C131.21 18.4087 133.848 18.648 135.893 19.1264C137.97 19.6048 139.586 20.2776 140.74 21.1447C141.927 21.982 142.735 22.9986 143.164 24.1947C143.592 25.3609 143.806 26.6466 143.806 28.052V43.3467C143.806 44.7222 143.592 45.993 143.164 47.1592C142.735 48.3253 141.96 49.327 140.839 50.1643L134.458 55.0083ZM143.312 43.3467V28.052C143.312 26.6765 143.081 25.4356 142.62 24.3293C142.191 23.193 141.4 22.2212 140.245 21.4139C139.125 20.6065 137.558 19.9786 135.547 19.5301C133.568 19.0815 131.045 18.8573 127.979 18.8573C124.912 18.8573 122.373 19.0815 120.362 19.5301C118.35 19.9786 116.767 20.6065 115.613 21.4139C114.492 22.2212 113.701 23.193 113.239 24.3293C112.81 25.4356 112.596 26.6765 112.596 28.052V43.3467C112.596 44.7222 112.81 45.9781 113.239 47.1143C113.701 48.2207 114.492 49.1775 115.613 49.9849C116.767 50.7623 118.35 51.3753 120.362 51.8238C122.373 52.2723 124.912 52.4966 127.979 52.4966C131.045 52.4966 133.568 52.2723 135.547 51.8238C137.558 51.3753 139.125 50.7623 140.245 49.9849C141.4 49.1775 142.191 48.2207 142.62 47.1143C143.081 45.9781 143.312 44.7222 143.312 43.3467ZM137.92 42.3151C137.92 44.1092 137.212 45.5744 135.794 46.7106C134.376 47.817 131.738 48.3702 127.88 48.3702C124.022 48.3702 121.4 47.817 120.015 46.7106C118.63 45.5744 117.938 44.1092 117.938 42.3151V29.0836C117.938 27.2895 118.63 25.8393 120.015 24.7329C121.4 23.5967 124.022 23.0285 127.88 23.0285C131.738 23.0285 134.376 23.5967 135.794 24.7329C137.212 25.8393 137.92 27.2895 137.92 29.0836V42.3151ZM118.433 42.3151C118.433 43.9896 119.092 45.3501 120.411 46.3967C121.73 47.4133 124.22 47.9217 127.88 47.9217C131.54 47.9217 134.046 47.4133 135.398 46.3967C136.75 45.3501 137.426 43.9896 137.426 42.3151V29.0836C137.426 27.4091 136.75 26.0636 135.398 25.0469C134.046 24.0003 131.54 23.4771 127.88 23.4771C124.22 23.4771 121.73 24.0003 120.411 25.0469C119.092 26.0636 118.433 27.4091 118.433 29.0836V42.3151ZM123.824 41.732V29.6667C123.824 29.0986 124.071 28.6202 124.566 28.2314C125.061 27.8128 126.198 27.6035 127.979 27.6035C129.759 27.6035 130.897 27.8128 131.392 28.2314C131.886 28.6202 132.134 29.0986 132.134 29.6667V41.732C132.134 42.3301 131.886 42.8384 131.392 43.257C130.897 43.6457 129.759 43.8401 127.979 43.8401C126.198 43.8401 125.061 43.6457 124.566 43.257C124.071 42.8384 123.824 42.3301 123.824 41.732ZM124.319 41.732C124.319 42.031 124.385 42.3002 124.516 42.5394V42.5394C124.753 42.9146 125.258 42.5904 125.258 42.1469V34.5556C125.258 34.2566 125.192 34.0024 125.061 33.7931V33.7931C124.837 33.3882 124.319 33.7311 124.319 34.1935V41.732ZM175.113 57.1613H149.936C149.144 57.1613 148.567 56.9968 148.205 56.6679C147.842 56.339 147.661 55.8157 147.661 55.0981V26.0337C147.661 25.6449 147.71 25.316 147.809 25.0469C147.941 24.7778 148.123 24.5535 148.353 24.3741L154.734 19.4852C154.898 19.3656 155.113 19.2759 155.377 19.2161C155.673 19.1264 155.987 19.0815 156.317 19.0815H163.983C164.775 19.0815 165.351 19.246 165.714 19.5749C166.077 19.9038 166.259 20.4271 166.259 21.1447V39.2663C166.259 39.3176 166.319 39.3445 166.357 39.31V39.31L172.738 34.4211C172.903 34.3015 173.117 34.2118 173.381 34.152C173.677 34.0622 173.991 34.0174 174.321 34.0174H181.493C182.284 34.0174 182.861 34.1819 183.223 34.5108C183.587 34.8397 183.768 35.363 183.768 36.0806V50.2091C183.768 50.5979 183.703 50.9268 183.571 51.1959C183.471 51.465 183.307 51.6893 183.076 51.8687L176.645 56.7127C176.513 56.8323 176.299 56.937 176.002 57.0267C175.739 57.1164 175.442 57.1613 175.113 57.1613ZM181.493 51.8238C182.12 51.8238 182.565 51.7042 182.829 51.465C183.125 51.1959 183.273 50.7773 183.273 50.2091V36.0806C183.273 35.5125 183.125 35.1088 182.829 34.8696C182.565 34.6005 182.12 34.4659 181.493 34.4659H174.321C173.694 34.4659 173.233 34.6005 172.935 34.8696C172.673 35.1088 172.541 35.5125 172.541 36.0806V39.9584C172.541 41.8297 171.024 43.3467 169.152 43.3467V43.3467C167.281 43.3467 165.764 41.8297 165.764 39.9584V21.1447C165.764 20.5766 165.615 20.1729 165.319 19.9337C165.055 19.6646 164.609 19.5301 163.983 19.5301H156.317C155.69 19.5301 155.229 19.6646 154.931 19.9337C154.667 20.1729 154.535 20.5766 154.535 21.1447V50.2091C154.535 50.7773 154.667 51.1959 154.931 51.465C155.229 51.7042 155.69 51.8238 156.317 51.8238H181.493ZM164.927 47.7871C162.165 47.7871 159.927 45.5485 159.927 42.7871V23.8141C159.927 23.6775 160.037 23.5668 160.174 23.5668V23.5668C160.311 23.5668 160.421 23.6775 160.421 23.8141V42.3386C160.421 45.1 162.66 47.3386 165.421 47.3386H173.217C175.657 47.3386 177.635 45.3606 177.635 42.9206V38.7499C177.635 38.6133 177.745 38.5026 177.882 38.5026V38.5026C178.019 38.5026 178.129 38.6133 178.129 38.7499V43.1449C178.129 45.7087 176.051 47.7871 173.487 47.7871H164.927ZM211.265 34.5556C211.858 34.5556 212.287 34.436 212.551 34.1968C212.815 33.9576 213.227 33.4493 213.788 32.6718L219.822 24.3293C220.02 24.0302 220.234 23.8359 220.465 23.7462C220.729 23.6266 220.992 23.5668 221.256 23.5668H222.097C222.383 23.5668 222.619 23.6129 222.804 23.705C223.019 23.8121 223.195 23.9984 223.296 24.216C223.387 24.4101 223.433 24.6572 223.433 24.9572V47.5398C223.433 47.6764 223.322 47.7871 223.185 47.7871V47.7871C223.049 47.7871 222.938 47.6764 222.938 47.5398V24.9572C222.938 24.894 222.933 24.8328 222.924 24.7738C222.875 24.4546 222.681 24.1225 222.368 24.0448C222.288 24.0251 222.198 24.0153 222.097 24.0153H221.355C221.124 24.0153 220.927 24.0452 220.762 24.105C220.597 24.1648 220.416 24.3442 220.217 24.6432L214.184 32.8961C213.589 33.7034 213.128 34.2566 212.798 34.5556C212.501 34.8546 211.99 35.0042 211.265 35.0042C210.539 35.0042 210.012 34.8546 209.682 34.5556C209.386 34.2566 208.94 33.7034 208.347 32.8961L202.312 24.6432C202.114 24.3442 201.917 24.1648 201.719 24.105C201.554 24.0452 201.356 24.0153 201.125 24.0153H200.383C200.054 24.0153 199.839 24.12 199.74 24.3293C199.641 24.5087 199.592 24.718 199.592 24.9572V47.5398C199.592 47.6764 199.482 47.7871 199.345 47.7871V47.7871C199.208 47.7871 199.098 47.6764 199.098 47.5398V24.9572C199.098 24.4788 199.196 24.1349 199.394 23.9256C199.625 23.6864 199.955 23.5668 200.383 23.5668H201.224C201.488 23.5668 201.752 23.6266 202.016 23.7462C202.28 23.8359 202.51 24.0302 202.708 24.3293L208.742 32.6718C209.303 33.4493 209.715 33.9576 209.979 34.1968C210.243 34.436 210.671 34.5556 211.265 34.5556ZM203.005 51.8238C203.632 51.8238 204.076 51.7042 204.34 51.465C204.637 51.1959 204.785 50.7773 204.785 50.2091V40.1146C204.785 38.5204 206.886 37.9411 207.703 39.31V39.31C208 39.8183 208.346 40.1921 208.742 40.4313C209.171 40.6406 209.699 40.7453 210.325 40.7453H212.304C212.93 40.7453 213.442 40.6406 213.837 40.4313C214.266 40.1921 214.628 39.8183 214.925 39.31V39.31C215.742 37.9408 217.844 38.5205 217.844 40.1152V50.2091C217.844 50.7773 217.976 51.1959 218.239 51.465C218.536 51.7042 218.997 51.8238 219.624 51.8238H227.241C227.868 51.8238 228.313 51.7042 228.577 51.465C228.874 51.1959 229.022 50.7773 229.022 50.2091V21.1447C229.022 20.5766 228.874 20.1729 228.577 19.9337C228.313 19.6646 227.868 19.5301 227.241 19.5301H219.228C218.701 19.5301 218.255 19.6347 217.893 19.844C217.563 20.0533 217.25 20.3972 216.953 20.8756L212.551 28.1866C212.479 28.3046 212.409 28.4082 212.343 28.4974C212.2 28.6913 212.032 28.8996 211.794 28.9388C211.752 28.9457 211.708 28.9491 211.661 28.9491H211.216C211.154 28.9491 211.096 28.9433 211.04 28.9317C210.804 28.8822 210.642 28.6771 210.509 28.4761C210.453 28.3918 210.392 28.2953 210.325 28.1866L205.873 20.8756C205.577 20.3972 205.247 20.0533 204.884 19.844C204.554 19.6347 204.126 19.5301 203.598 19.5301H195.635C195.008 19.5301 194.547 19.6646 194.25 19.9337C193.986 20.1729 193.854 20.5766 193.854 21.1447V50.2091C193.854 50.7773 193.986 51.1959 194.25 51.465C194.547 51.7042 195.008 51.8238 195.635 51.8238H203.005ZM204.588 51.8687L198.157 56.7127C198.025 56.8323 197.811 56.937 197.514 57.0267C197.251 57.1164 196.954 57.1613 196.624 57.1613H189.254C188.463 57.1613 187.886 56.9968 187.523 56.6679C187.16 56.339 186.979 55.8157 186.979 55.0981V26.0337C186.979 25.6449 187.028 25.316 187.127 25.0469C187.259 24.7778 187.441 24.5535 187.672 24.3741L194.052 19.4852C194.217 19.3656 194.432 19.2759 194.695 19.2161C194.992 19.1264 195.305 19.0815 195.635 19.0815H203.598C204.225 19.0815 204.736 19.2011 205.131 19.4403C205.56 19.6796 205.956 20.0832 206.319 20.6514L209.247 25.5334C209.446 25.8643 209.924 25.8681 210.128 25.5403V25.5403C210.26 25.331 210.391 25.1366 210.523 24.9572C210.688 24.7479 210.853 24.5834 211.017 24.4638L217.398 19.6198C217.662 19.4403 217.926 19.3058 218.19 19.2161C218.486 19.1264 218.833 19.0815 219.228 19.0815H227.241C228.033 19.0815 228.61 19.246 228.972 19.5749C229.335 19.9038 229.516 20.4271 229.516 21.1447V50.2091C229.516 50.5979 229.45 50.9268 229.318 51.1959C229.22 51.465 229.055 51.6893 228.824 51.8687L222.394 56.7127C222.262 56.8323 222.047 56.937 221.751 57.0267C221.487 57.1164 221.19 57.1613 220.861 57.1613H213.243C212.419 57.1613 211.826 56.9968 211.463 56.6679C211.133 56.339 210.968 55.8157 210.968 55.0981V46.9101C210.968 45.4071 209.251 44.5505 208.05 45.4548V45.4548C207.786 45.6641 207.473 45.8285 207.11 45.9482C206.78 46.0379 206.384 46.0827 205.923 46.0827V46.0827C205.568 46.0827 205.28 46.3707 205.28 46.726V50.2091C205.28 50.5979 205.214 50.9268 205.082 51.1959C204.984 51.465 204.818 51.6893 204.588 51.8687ZM259.155 57.1613H236.205C235.414 57.1613 234.836 56.9968 234.473 56.6679C234.111 56.339 233.93 55.8157 233.93 55.0981V26.0337C233.93 25.6449 233.979 25.316 234.078 25.0469C234.21 24.7778 234.391 24.5535 234.622 24.3741L241.003 19.4852C241.168 19.3656 241.382 19.2759 241.646 19.2161C241.942 19.1264 242.256 19.0815 242.585 19.0815H265.536C266.328 19.0815 266.904 19.246 267.267 19.5749C267.63 19.9038 267.812 20.4271 267.812 21.1447V26.3925C267.812 26.7812 267.745 27.1101 267.613 27.3792C267.514 27.6483 267.349 27.8726 267.119 28.052L263.656 30.6444C263.3 30.9108 263.378 31.5026 263.557 31.9093V31.9093C263.722 32.2083 263.805 32.5971 263.805 33.0755V37.8747C263.805 38.2634 263.739 38.5923 263.607 38.8615C263.508 39.1306 263.343 39.3548 263.112 39.5343V39.5343C261.688 40.6229 262.458 42.8982 264.251 42.8982H265.536C266.328 42.8982 266.904 43.0626 267.267 43.3916C267.63 43.7205 267.812 44.2438 267.812 44.9614V50.2091C267.812 50.5979 267.745 50.9268 267.613 51.1959C267.514 51.465 267.349 51.6893 267.119 51.8687L260.689 56.7127C260.557 56.8323 260.342 56.937 260.046 57.0267C259.782 57.1164 259.485 57.1613 259.155 57.1613ZM265.536 51.8238C266.162 51.8238 266.607 51.7042 266.871 51.465C267.168 51.1959 267.317 50.7773 267.317 50.2091V44.9614C267.317 44.3933 267.168 43.9896 266.871 43.7504C266.607 43.4813 266.162 43.3467 265.536 43.3467H253.813C252.747 43.3467 251.884 42.4832 251.884 41.4181V41.4181C251.884 40.3529 252.747 39.4894 253.813 39.4894H261.53C262.156 39.4894 262.601 39.3698 262.865 39.1306C263.161 38.8615 263.31 38.4428 263.31 37.8747V33.0755C263.31 32.5074 263.161 32.1037 262.865 31.8645C262.601 31.5954 262.156 31.4608 261.53 31.4608H253.611C252.657 31.4608 251.884 30.6877 251.884 29.734V29.734C251.884 28.7803 252.657 28.0072 253.611 28.0072H265.536C266.162 28.0072 266.607 27.8876 266.871 27.6483C267.168 27.3792 267.317 26.9606 267.317 26.3925V21.1447C267.317 20.5766 267.168 20.1729 266.871 19.9337C266.607 19.6646 266.162 19.5301 265.536 19.5301H242.585C241.959 19.5301 241.497 19.6646 241.201 19.9337C240.937 20.1729 240.805 20.5766 240.805 21.1447V50.2091C240.805 50.7773 240.937 51.1959 241.201 51.465C241.497 51.7042 241.959 51.8238 242.585 51.8238H265.536ZM262.641 47.3386C262.765 47.3386 262.865 47.439 262.865 47.5629V47.5629C262.865 47.6867 262.765 47.7871 262.641 47.7871H251.196C248.435 47.7871 246.196 45.5485 246.196 42.7871V28.5668C246.196 25.8054 248.435 23.5668 251.196 23.5668H262.641C262.765 23.5668 262.865 23.6672 262.865 23.791V23.791C262.865 23.9149 262.765 24.0153 262.641 24.0153H251.691C248.93 24.0153 246.691 26.2539 246.691 29.0153V30.2733C246.691 33.0347 248.93 35.2733 251.691 35.2733H258.635C258.759 35.2733 258.859 35.3737 258.859 35.4975V35.4975C258.859 35.6214 258.759 35.7218 258.635 35.7218H251.691C248.93 35.7218 246.691 37.9604 246.691 40.7218V42.3386C246.691 45.1 248.93 47.3386 251.691 47.3386H262.641Z" fill="#4B6587"/>
<rect x="-19.5" y="-19.5" width="1182.91" height="1959" rx="4.5" stroke="#9747FF" stroke-dasharray="10 5"/>
</g>
<defs>
<clipPath id="clip0_59_14">
<rect width="327" height="76" fill="white"/>
</clipPath>
</defs>
</svg>
